<svg xmlns="http://www.w3.org/2000/svg" width="24" height="24" viewBox="0 0 24 24">
    <g fill="none" fill-rule="evenodd">
        <g>
            <g>
                <g>
                    <path fill="#7DCDF1" d="M8.219 4.19c.931-1.368 2.26-2.746 3.703-4.044.835 1.002 1.566 2.257 1.827 3.706 1.035-.594 2.2-1.088 3.428-1.5.808-.271 1.643-.506 2.483-.711-.104 1.878-.46 3.873-1.275 5.664 1.92.04 3.854.604 5.615 1.37-1.406 1.808-2.983 3.5-4.655 4.703 1.2.992 2.03 2.378 2.588 3.77-1.892.794-3.796 1.422-5.484 1.642.217 1.205 0 2.488-.367 3.617-.602-.05-1.196-.12-1.768-.212-.876-.142-1.701-.342-2.424-.62-.409.897-1.117 1.671-1.84 2.279-.949-.59-1.853-1.268-2.495-2.012-.661.475-1.481.753-2.242.911-.471-.752-.89-1.577-1.095-2.377-.436.056-.894.032-1.339-.041-.271-.044-.538-.106-.795-.178-.105-.776-.142-1.613-.008-2.358-.638-.245-1.251-.699-1.78-1.183.2-.733.488-1.504.907-2.12-.49-.569-.888-1.34-1.203-2.116.489-.62 1.092-1.237 1.759-1.623l-.005-.02c-.225-.901-.28-1.987-.25-3.06.294-.143.604-.273.925-.38.526-.177 1.072-.287 1.602-.278.22-1.225.728-2.6 1.336-3.944.995.13 2.044.448 2.852 1.115z" transform="translate(-300 -156) translate(24 136) translate(276 20)"/>
                    <path fill="#00AAE7" d="M9.851 7.232c.601-.716 1.321-1.447 2.161-2.164.52-.449 1.106-.85 1.737-1.216.102.566.132 1.154.066 1.755-.106.993-.322 1.951-.62 2.844.921-.388 1.95-.715 3.064-.954.695-.148 1.407-.207 2.126-.192-.308.676-.679 1.316-1.12 1.902-.71.945-1.462 1.77-2.219 2.468.905.14 1.836.393 2.757.77.566.232 1.078.55 1.541.933-.619.444-1.25.822-1.893 1.115-1.03.47-2.01.813-2.921 1.047.545.542 1.036 1.175 1.436 1.885.24.423.396.885.483 1.365-.629.082-1.231.108-1.799.065-.92-.067-1.753-.212-2.495-.414.11.642.133 1.314.06 1.988-.043.396-.159.78-.325 1.146-.45-.175-.864-.378-1.229-.621-.6-.4-1.12-.832-1.556-1.28l-.003-.003.003.003c-.21.522-.49 1.02-.837 1.48-.198.265-.442.492-.713.688-.25-.288-.462-.59-.627-.905-.276-.526-.481-1.056-.625-1.575-.38.313-.802.579-1.255.784-.261.12-.54.192-.83.23-.082-.318-.13-.635-.134-.946-.009-.529.04-1.04.137-1.525-.44.086-.896.113-1.353.08-.266-.02-.531-.086-.792-.187.056-.301.139-.591.256-.856.204-.457.453-.878.74-1.256-.42-.144-.833-.347-1.227-.61-.232-.154-.445-.35-.642-.58.172-.251.365-.478.583-.665.378-.325.785-.59 1.207-.798-.321-.375-.616-.808-.871-1.3-.152-.29-.272-.62-.363-.976.276-.158.563-.278.854-.34.506-.108 1.013-.139 1.505-.098-.127-.593-.2-1.247-.21-1.954-.009-.426.037-.877.123-1.346.347.007.684.068.999.197.539.22 1.032.525 1.47.897.194-.748.471-1.547.846-2.384.23-.514.525-1.028.873-1.539.325.268.607.591.823.974.366.647.634 1.349.809 2.068z" transform="translate(-300 -156) translate(24 136) translate(276 20)"/>
                    <path fill="#006FBA" d="M7.995 10.12c-.01.027.012.027 0 0h.001v-.001c.403-.915 1.024-1.897 1.855-2.887.251 1.045.3 2.112.16 3.101-.02.016-.02.035-.008.056l.008-.056c.843-.702 1.919-1.351 3.184-1.882-.42 1.255-.997 2.365-1.662 3.263.203-.04.41-.073.623-.1.894-.11 1.872-.097 2.89.062-1.041.96-2.097 1.683-3.087 2.156.901.353 1.788.93 2.571 1.708-1.012.259-1.948.381-2.779.384-.199 0-.392-.006-.578-.019.48.715.822 1.585.982 2.536-1.036-.284-1.91-.69-2.591-1.174h-.001c.016.789-.139 1.616-.458 2.407-.626-.642-1.094-1.33-1.394-2.017.01-.016-.012-.027 0 0-.343.641-.824 1.226-1.408 1.705-.208-.767-.28-1.523-.217-2.225-.553.376-1.192.638-1.865.768.147-.729.409-1.403.766-1.978.022-.002.016-.025 0 0-.127.011-.253.017-.381.017-.51.001-1.028-.084-1.534-.258.434-.577.951-1.054 1.514-1.398-.573-.277-1.115-.702-1.593-1.255.517-.255 1.056-.418 1.588-.484.132-.017.266-.027.399-.03.014.023.028-.001 0 0-.384-.596-.679-1.34-.861-2.2.748.063 1.453.292 2.052.665.002.026.022.014 0 0-.049-.842.057-1.816.329-2.871.652.555 1.164 1.249 1.495 2.006v.002z" transform="translate(-300 -156) translate(24 136) translate(276 20)"/>
                    <path fill="#FFF" d="M10.012 10.322l-.002.011c-.677.565-1.214 1.17-1.588 1.79.003-.672-.143-1.355-.426-2.002-.33.75-.522 1.466-.566 2.123-.302-.507-.736-.935-1.259-1.26.04.706.188 1.335.441 1.855-.492-.234-1.048-.338-1.632-.32-.007-.01-.02-.01-.038 0h.038c.327.51.724.92 1.176 1.2-.535.063-1.07.263-1.57.569.5.242 1.03.372 1.558.369-.451.325-.843.76-1.157 1.27.556-.05 1.093-.213 1.574-.486-.262.508-.42 1.085-.475 1.696.494-.335.915-.755 1.231-1.242.004.58.14 1.176.394 1.762.303-.567.49-1.169.541-1.765.303.508.748.974 1.311 1.375-.014-.684-.155-1.326-.426-1.876.562.285 1.25.46 2.036.514-.405-.603-.902-1.086-1.457-1.412.69-.058 1.45-.28 2.243-.66-.737-.289-1.479-.422-2.175-.395.617-.414 1.211-.998 1.75-1.724-.85.168-1.607.453-2.236.842.354-.646.597-1.402.713-2.223.003-.002.003-.006.001-.011z" transform="translate(-300 -156) translate(24 136) translate(276 20)"/>
                </g>
            </g>
        </g>
    </g>
</svg>
